<svg width="187" height="184" viewBox="0 0 187 184" fill="none" xmlns="http://www.w3.org/2000/svg">
<path fill-rule="evenodd" clip-rule="evenodd" d="M93.8646 0C42.5295 0 0.914062 41.1899 0.914062 92.0003C0.914062 142.811 42.5295 184 93.8646 184C145.2 184 186.815 142.811 186.815 92.0003C186.815 41.1899 145.2 0 93.8646 0ZM14.2472 92.0003C14.2472 48.4783 49.8931 13.1969 93.8646 13.1969C137.836 13.1969 173.481 48.4783 173.481 92.0003C173.481 135.522 137.836 170.803 93.8646 170.803C49.8931 170.803 14.2472 135.522 14.2472 92.0003ZM93.8662 30.8798C90.7657 30.8798 88.2522 33.3674 88.2522 36.4363C88.2522 39.5051 90.7657 41.9929 93.8662 41.9929H113.48C116.58 41.9929 119.094 39.5051 119.094 36.4363C119.094 33.3674 116.58 30.8798 113.48 30.8798H93.8662ZM93.8662 58.6625C90.7657 58.6625 88.2522 61.1502 88.2522 64.2191C88.2522 67.2878 90.7657 69.7756 93.8662 69.7756H138.076C141.176 69.7756 143.69 67.2878 143.69 64.2191C143.69 61.1502 141.176 58.6625 138.076 58.6625H93.8662ZM93.8662 86.4453C90.7657 86.4453 88.2522 88.933 88.2522 92.0018C88.2522 95.0706 90.7657 97.5584 93.8662 97.5584H152.812C155.913 97.5584 158.426 95.0706 158.426 92.0018C158.426 88.933 155.913 86.4453 152.812 86.4453H93.8662ZM93.8662 114.228C90.7657 114.228 88.2522 116.716 88.2522 119.785C88.2522 122.853 90.7657 125.341 93.8662 125.341H138.076C141.176 125.341 143.69 122.853 143.69 119.785C143.69 116.716 141.176 114.228 138.076 114.228H93.8662ZM93.8662 142.011C90.7657 142.011 88.2522 144.498 88.2522 147.567C88.2522 150.636 90.7657 153.124 93.8662 153.124H113.48C116.58 153.124 119.094 150.636 119.094 147.567C119.094 144.498 116.58 142.011 113.48 142.011H93.8662Z" fill="black"/>
</svg>
