<svg xmlns="http://www.w3.org/2000/svg" class="b-corp-logo" width="92" height="140">
  <g fill="#4A4A4A" fill-rule="evenodd">
    <path d="M5.929 66.724c-.095 21.18 17.085 37.582 36.964 38.16 21.9.638 40.433-17.422 39.283-40.002-.515-10.13-4.469-18.763-11.81-25.71-7.904-7.48-17.394-10.922-28.3-10.467-18.949.79-36.195 16.763-36.137 38.02m82.125.07c-.12 25.948-21.435 44.254-44.434 43.908C18.2 110.321-.925 89.343.097 64.933 1.112 40.704 21.224 22.17 45.088 22.8c25.468.674 43.19 21.57 42.966 43.996M44.077 134.36l43.014.001c.859 0 .858 0 .858.86v4.002c0 .773 0 .775-.793.775H1.07c-.845 0-.844 0-.844-.825 0-1.432.011-2.864-.008-4.296-.005-.377.1-.554.494-.518.194.017.392.002.588.002h42.777zM15.34 5.765c-1.069 0-2.082.017-3.094-.02-.14-.004-.335-.249-.397-.421-.5-1.383-1.524-2.123-2.927-2.294-1.627-.199-3 .401-3.774 1.844-1.18 2.201-1.259 4.51-.064 6.752.709 1.331 1.892 1.983 3.419 1.983 1.427 0 2.488-.604 3.116-1.898.17-.348.31-.724.38-1.102.067-.354.191-.51.568-.5.764.022 1.529.019 2.293.002.45-.01.565.169.519.61-.303 2.89-2.431 5.168-5.307 5.65-2.668.448-5.077-.075-7.037-2.016-1.31-1.298-1.966-2.939-2.148-4.772C.666 7.361.94 5.23 2.189 3.332 3.793.895 6.16-.036 8.997.089c1.872.082 3.517.714 4.804 2.123.896.98 1.374 2.149 1.54 3.553m69.658 4.802c-.137-.707-.21-1.35-.39-1.962-.267-.91-.883-1.555-1.832-1.7-1.083-.165-2.104.047-2.676 1.119-.818 1.533-.808 3.13-.072 4.676.442.927 1.25 1.44 2.323 1.4 1.02-.037 1.766-.556 2.133-1.482.261-.66.354-1.386.514-2.05m-.135 4.368c-1.7 2.133-5.26 1.75-6.717.29-.984-.986-1.487-2.185-1.697-3.528-.306-1.95-.031-3.783 1.157-5.416 1.564-2.149 4.922-2.428 6.71-.7.079.076.193.114.385.224.028-.27.066-.468.067-.667.004-1.354.015-2.708-.007-4.062-.007-.44.156-.596.583-.586.686.014 1.373.006 2.059-.016.383-.012.572.092.57.526-.01 4.867-.008 9.733-.001 14.6 0 .41-.164.56-.564.546a24.243 24.243 0 0 0-1.766 0c-.482.02-.76-.114-.691-.663.018-.14-.044-.29-.088-.548M22.095 9.285c.645 0 1.291-.015 1.936.005.508.016.633-.212.478-.653-.36-1.023-.814-1.879-2.642-1.759-1.002.066-1.967.875-2.146 1.848-.07.385.044.561.437.56.646-.004 1.291-.002 1.937 0m1.685 1.974c-1.176 0-2.352.006-3.529-.003-.428-.004-.635.073-.552.606.176 1.132.75 1.89 1.863 2.151 1.17.274 2.243.03 3.014-.946.298-.378.597-.495 1.04-.468.468.028.94 0 1.41.008.543.01.61.141.399.645-.803 1.914-2.24 2.96-4.3 3.141-1.534.135-3.008-.032-4.321-.934-1.407-.967-2.092-2.375-2.277-4.005-.276-2.434.344-4.572 2.47-6.021 2.46-1.677 6.54-1.344 8.126 1.917.521 1.073.75 2.218.729 3.414-.007.374-.165.508-.544.502-1.176-.018-2.352-.006-3.528-.007m45.93-1.976c.628 0 1.255.005 1.882-.001.594-.006.725-.154.525-.706-.357-.983-.784-1.804-2.64-1.701-1 .056-1.835.753-2.126 1.798-.134.483.06.611.478.611h1.882m1.648 1.975c-1.157 0-2.314-.006-3.471.002-.614.004-.668.12-.56.701.21 1.121.814 1.861 1.95 2.073 1.205.224 2.243-.078 3.044-1.074.144-.18.429-.32.661-.34.545-.05 1.097-.02 1.646-.015.571.005.619.094.418.61-.833 2.13-2.47 3.09-4.675 3.209-1.354.072-2.652-.122-3.823-.88-1.356-.876-2.084-2.166-2.345-3.707-.307-1.814-.116-3.576 1.038-5.091 1.443-1.894 3.407-2.54 5.718-2.188 3.379.514 4.639 3.817 4.493 6.303-.021.353-.21.404-.506.401-1.196-.01-2.392-.004-3.588-.004m-17.091 4.882c-1.508 0-1.508 0-1.508-1.521 0-2.374-.014-4.748.012-7.121.005-.505-.164-.63-.64-.626-1.25.014-1.25-.006-1.25-1.235 0-.894 0-.894.923-.893.137 0 .275-.01.411.002.402.035.544-.13.557-.542.018-.542.048-1.107.214-1.615.405-1.238 1.337-1.915 2.607-2.053.735-.08 1.487-.006 2.231-.015.359-.004.495.156.456.504-.017.155.003.313-.004.47-.02.427.097.965-.118 1.244-.16.207-.755.078-1.157.1-.794.042-1.387.935-1.06 1.643.06.13.302.232.47.249a7.29 7.29 0 0 0 1.116.008c.35-.02.518.117.508.47-.002.038 0 .078.001.117.051 1.534.051 1.556-1.463 1.544-.561-.004-.686.203-.68.728.024 2.55.01 5.1.01 7.65 0 .891.001.891-.871.892h-.765m-14.804-5.545c0-1.06-.017-2.119.01-3.178.01-.419-.14-.536-.542-.543-1.355-.022-1.354-.036-1.347-1.377.005-.728.027-.751.77-.753 1.257-.004 1.101.108 1.108-1.093.004-.589.018-1.178-.006-1.765-.014-.37.09-.542.49-.53a39.2 39.2 0 0 0 2.118 0c.4-.009.564.137.55.55-.024.726.014 1.453-.014 2.178-.019.477.147.694.64.665.39-.023.783 0 1.176-.006.335-.007.516.13.51.484-.037 2.012.308 1.613-1.488 1.652-.831.019-.831.006-.83.852 0 1.451-.005 2.903.003 4.355.001.272.034.547.084.815.125.675.38.878 1.076.893 1.155.024 1.155.024 1.155 1.16 0 1.265 0 1.319-1.261 1.326-.874.004-1.76-.102-2.618-.275-.943-.192-1.569-1.167-1.582-2.29-.012-1.04-.003-2.08-.002-3.12M9.374 120.209c-.236 0-.484.046-.703-.014-.204-.057-.468-.183-.55-.354-.41-.853-1.011-1.453-1.978-1.56-1.18-.13-2.199.187-2.785 1.306-.838 1.598-.869 3.24.02 4.818.597 1.06 1.616 1.487 2.803 1.297 1.126-.18 1.743-.948 2.017-2.037.041-.166.287-.378.456-.395.525-.052 1.057-.014 1.587-.024.351-.007.448.17.391.483-.345 1.912-1.57 3.608-3.845 3.972-1.98.317-3.74-.105-5.118-1.654-1.093-1.228-1.439-2.715-1.384-4.309.071-2.087.844-3.851 2.714-4.907 2.341-1.322 5.533-.781 6.88 1.359.305.485.459 1.071.634 1.626.027.088-.185.34-.32.372-.26.06-.545.017-.82.017v.004zm24.229 3.478c-.096-.543-.126-1.001-.265-1.423-.23-.692-.683-1.18-1.46-1.273-.781-.092-1.426.161-1.774.87-.52 1.056-.545 2.171-.028 3.231.281.578.778.955 1.498.965.744.01 1.324-.256 1.62-.934.207-.473.29-1 .41-1.436m-3.819 3.087c0 1.076-.024 2.014.01 2.95.019.541-.158.754-.71.68a4.186 4.186 0 0 0-.999.001c-.437.048-.536-.154-.535-.543.008-3.297.01-6.593 0-9.89-.002-.418.153-.573.56-.515.153.022.313 0 .47.006.538.022 1.24-.238 1.138.955.8-.93 1.645-1.169 2.61-1.142 1.606.046 2.928 1.191 3.267 2.773.279 1.304.266 2.55-.293 3.786-.824 1.82-3.157 2.505-4.812 1.388-.19-.128-.385-.246-.706-.45M32.441 6.45c.616-1.01 1.497-1.64 2.638-1.9.114-.026.228-.057.344-.07 1.064-.11 1.19.005 1.19 1.072 0 .45-.022.903.007 1.352.026.418-.145.54-.547.544-.6.007-1.24-.037-1.793.15-1.53.514-1.87 1.83-1.909 3.244a102.739 102.739 0 0 0 0 4.587c.01.533-.16.75-.707.721a23.212 23.212 0 0 0-1.94-.004c-.39.012-.513-.155-.512-.525.007-3.45.007-6.9.001-10.35 0-.353.086-.549.497-.533.685.027 1.372.023 2.057.001.371-.012.487.152.479.49-.01.396-.003.792-.003 1.19l.198.03m25.274 117.758c-.032-.048-.187-.397-.272-.381-.818.155-1.666.274-2.422.599-.673.29-.57 1.335.092 1.664 1.268.632 2.56-.209 2.602-1.882zm2.225 3.321c-.708-.206-1.659.459-2.338-.59-.826.727-1.834.837-2.892.793-1.398-.058-2.398-.968-2.403-2.359-.004-1.25.602-2.096 2.13-2.374.692-.126 1.395-.2 2.092-.303.731-.108 1.188-.477 1.17-.939-.023-.61-.502-.967-1.296-.991-.706-.02-1.268.163-1.544.9-.053.142-.286.29-.446.303-.487.04-.979.022-1.468.01-.346-.007-.4-.171-.319-.507.235-.966.826-1.585 1.747-1.882 1.42-.457 2.85-.464 4.253.058.91.339 1.323 1.046 1.316 2.014-.008 1.078-.002 2.156-.002 3.235v2.632zm-20.91-4.05.056.019c.03.33.046.662.095.99.114.75.745 1.426 1.421 1.544.895.156 1.595-.152 2.005-.947.443-.856.419-1.763.2-2.68-.191-.796-.803-1.351-1.586-1.421-.915-.082-1.523.244-1.853 1.09-.174.444-.23.935-.338 1.405m1.995 4.25c-2.454.132-4.204-1.6-4.175-4.223.028-2.63 1.588-4.225 4.189-4.223 2.524.003 4.136 1.635 4.168 4.147.034 2.63-1.717 4.416-4.182 4.298m-25.172-1.674c.678.006 1.228-.307 1.544-1.02.419-.941.41-1.908.096-2.854-.257-.77-.829-1.202-1.687-1.208-.845-.005-1.436.373-1.728 1.149-.364.968-.36 1.945.07 2.909.317.71.864 1.027 1.705 1.024m-.128 1.674c-2.477.088-4.158-1.606-4.148-4.218.01-2.517 1.512-4.275 4.267-4.23 2.676.045 4.137 1.747 4.121 4.264-.016 2.623-1.625 4.256-4.24 4.184m57.005-4.328c.084.489.133.896.227 1.292.177.75.766 1.285 1.447 1.35.955.094 1.561-.19 1.926-.991.45-.988.428-2.01.04-3.015-.288-.747-.875-1.053-1.658-1.058-.77-.006-1.343.331-1.636 1.019-.194.456-.245.973-.346 1.403m1.92 4.328c-2.274.109-4.213-1.566-4.108-4.418.087-2.363 1.601-4.096 4.331-4.036 2.442.054 4.01 1.711 4.022 4.297.013 2.543-1.79 4.329-4.245 4.157m7.844-7.507c.616-.301 1.176-.707 1.795-.84.609-.13 1.296-.073 1.914.063.745.165 1.287.687 1.448 1.467.133.65.235 1.314.254 1.975.038 1.352 0 2.707.019 4.061.005.426-.128.619-.573.587a8.783 8.783 0 0 0-1.118-.001c-.413.023-.554-.16-.55-.558.013-1.255.014-2.512 0-3.767a4.628 4.628 0 0 0-.124-1.047c-.205-.833-.636-1.144-1.474-1.12-.729.021-1.282.492-1.426 1.24a4.15 4.15 0 0 0-.06.76c-.006 1.295-.013 2.59.004 3.885.006.424-.143.613-.577.606-1.996-.031-1.673.252-1.689-1.608-.015-1.923.01-3.846-.011-5.77-.006-.536.177-.774.721-.694.096.015.196.003.294.003.931.002.931.002 1.153.758M59.927 10.415c0-1.646.017-3.29-.01-4.936-.008-.541.12-.796.719-.744.583.05 1.176.042 1.76.001.548-.038.718.175.715.707-.016 3.173-.008 6.345-.008 9.518 0 1.181 0 1.18-1.168 1.18-.47 0-.942-.023-1.41.007-.474.03-.61-.175-.605-.622.017-1.704.007-3.407.007-5.111m-13.473.003c0-1.667.015-3.334-.008-5-.008-.514.171-.705.683-.68.626.031 1.255.024 1.881.002.447-.016.634.142.632.609-.011 3.412-.01 6.824 0 10.235 0 .41-.172.565-.563.56a57.942 57.942 0 0 0-2.058.001c-.438.01-.576-.19-.573-.61.014-1.705.006-3.411.006-5.117M62.178 123.67c0-.707-.02-1.414.007-2.118.017-.434-.128-.595-.57-.583-.667.02-1.083-.752-.69-1.312.105-.15.448-.19.678-.184.43.012.61-.128.582-.575a7.822 7.822 0 0 1 .012-1.409c.018-.155.262-.285.405-.424.01-.01.039-.002.058-.002 2.116.038 1.704-.318 1.744 1.645.015.741.013.74.756.76.277.008.752.02.79.141.114.357.084.772.041 1.156-.01.087-.298.205-.458.204-1.347-.002-1.113.008-1.125 1.157-.01.901-.007 1.804 0 2.706.006.812.215 1.051 1.015.99.529-.041.628.153.62.621-.025 1.385.08 1.183-1.212 1.18a5.973 5.973 0 0 1-1.33-.15c-.897-.21-1.306-.753-1.32-1.686-.012-.706-.003-1.412-.003-2.118m-38.687-3.062c.544-.705 1.16-1.182 2.004-1.299.801-.11.936-.008.935.791v.118c0 1.074 0 1.074-1.038 1.127-1.13.057-1.943 1.016-1.971 2.367a72.249 72.249 0 0 0 .003 3.174c.01.477-.141.654-.638.653-1.6-.001-1.6.016-1.6-1.552 0-1.96.014-3.92-.01-5.879-.006-.507.134-.74.664-.649.133.023.274.005.41.004.932 0 .931 0 1.086.911.009.05.06.094.155.234m25.309.002c.208-.189.34-.318.481-.433.273-.22.522-.502.834-.634.512-.216 1.228-.556 1.575-.083.286.39.128 1.117.116 1.694-.001.07-.325.21-.48.188-1.483-.209-2.532.918-2.473 2.488.039 1.038-.006 2.08.015 3.118.008.424-.124.619-.57.587a11.19 11.19 0 0 0-1.177-.004c-.354.013-.493-.15-.492-.493.005-2.353.005-4.706.001-7.06 0-.357.11-.57.512-.519.116.015.236.004.353.004 1.095.003 1.095.003 1.305 1.147m18.363 2.886c0-1.156.011-2.311-.006-3.467-.006-.417.112-.618.57-.575a7.54 7.54 0 0 0 1.173 0c.363-.023.496.137.496.478-.002 2.37-.002 4.74.003 7.109 0 .343-.143.476-.493.495-1.743.096-1.743.104-1.743-1.632v-2.408M48.024 3.038c-1.567.002-1.567.002-1.57-1.567 0-.156.012-.315-.004-.47-.037-.35.109-.508.463-.505.745.007 1.489.006 2.233 0 .332-.002.51.112.496.482a21.1 21.1 0 0 0 0 1.586c.013.374-.173.482-.502.476-.372-.007-.744-.002-1.116-.002m13.439.002c-1.535 0-1.535 0-1.535-1.536 0-.137.014-.276-.003-.41-.06-.467.143-.625.6-.605.664.028 1.33.02 1.994.003.414-.01.619.122.59.573-.029.467-.029.94 0 1.407.028.451-.177.592-.59.572-.352-.017-.704-.004-1.056-.004m6.68 113.373c1.33.026 1.252-.284 1.257 1.386.001.315-.095.479-.432.47-.47-.01-.94-.002-1.411-.003-.059 0-.138.015-.172-.017-.472-.427-.141-.979-.193-1.47-.011-.105.267-.297.442-.352.196-.062.427-.014.51-.014m22.85-.373h.304v1.518h-.304v-.813l-.492.813h-.165l-.454-.813v.813h-.29l-.049-1.518h.339l.538 1.024zm-2.498 1.487v-1.233h-.632v-.196h1.508a2.72 2.72 0 0 0 0 .196h-.588v1.233h-.288z"/>
    <path d="M40.695 47.369v-.033c-2.529 0-5.058.017-7.587-.012-.598-.007-.762.178-.76.77.023 4.766.013 9.532.013 14.298 0 .807.012.821.82.821 4 .001 8 .002 11.999 0 1.942 0 3.88-.066 5.76-.618 2-.587 3.714-1.573 4.653-3.552.94-1.979.949-4.044.54-6.147-.423-2.185-1.623-3.806-3.696-4.576-1.32-.49-2.755-.83-4.157-.91-2.52-.144-5.056-.041-7.585-.041m.952 38.782c2.372 0 4.745-.02 7.117.008 1.324.015 2.614-.113 3.88-.521 1.935-.624 3.503-1.73 4.544-3.491 1.201-2.031 1.528-4.228 1.16-6.556-.34-2.156-1.356-3.846-3.225-5.001-2.014-1.245-4.256-1.671-6.57-1.69-5.156-.04-10.314-.006-15.47-.021-.57-.002-.735.191-.733.753.018 5.257.02 10.513-.002 15.77-.003.606.184.766.769.76 2.843-.025 5.686-.01 8.53-.01m14.058-20.916c.929.327 1.749.574 2.537.9 3.066 1.268 5.215 3.45 6.194 6.631 1.73 5.618.65 10.663-3.442 14.93-1.93 2.015-4.386 3.22-7.136 3.686a28.589 28.589 0 0 1-4.61.395c-7.593.039-15.185.018-22.777.017-.852 0-.852 0-.852-.827V42.4c0-.802 0-.801.808-.801 5.67 0 11.34-.028 17.01.012 2.584.019 5.173.094 7.75.292 2.063.159 4.132.474 5.966 1.563 2.61 1.549 4.469 3.733 5.329 6.666 1.106 3.77.77 7.392-1.385 10.748-1.22 1.902-2.975 3.19-5.003 4.131-.1.047-.191.11-.389.225"/>
  </g>
</svg>