<?xml version="1.0" encoding="UTF-8" standalone="no"?>
<svg xmlns:dc="http://purl.org/dc/elements/1.1/"
   xmlns:cc="http://creativecommons.org/ns#"
   xmlns:rdf="http://www.w3.org/1999/02/22-rdf-syntax-ns#"
   xmlns:svg="http://www.w3.org/2000/svg"
   xmlns="http://www.w3.org/2000/svg"
   xmlns:sodipodi="http://sodipodi.sourceforge.net/DTD/sodipodi-0.dtd"
   xmlns:inkscape="http://www.inkscape.org/namespaces/inkscape" width="264.58334mm" height="29.437788mm" viewBox="0 0 264.58334 29.437788" version="1.1" id="svg8" inkscape:version="1.0.1 (3bc2e813f5, 2020-09-07)" sodipodi:docname="RDLogoText.svg">
   <defs id="defs2" />
   <sodipodi:namedview id="base" pagecolor="#ffffff" bordercolor="#666666" borderopacity="1.0" inkscape:pageopacity="0.0" inkscape:pageshadow="2" inkscape:zoom="0.49497475" inkscape:cx="274.56349" inkscape:cy="123.43206" inkscape:document-units="px" inkscape:current-layer="layer1" showgrid="false" inkscape:window-width="1920" inkscape:window-height="1057" inkscape:window-x="-8" inkscape:window-y="-8" inkscape:window-maximized="1" inkscape:document-rotation="0" />
   <metadata id="metadata5">
      <rdf:RDF>
         <cc:Work rdf:about="">
            <dc:format>image/svg+xml</dc:format>
            <dc:type rdf:resource="http://purl.org/dc/dcmitype/StillImage" />
            <dc:title></dc:title>
         </cc:Work>
      </rdf:RDF>
   </metadata>
   <g inkscape:label="Layer 1" inkscape:groupmode="layer" id="layer1" transform="translate(24.867268,-102.29432)">
      <path id="path3608" style="fill:#333333;stroke-width:2.04299" d="m 164.05078,0 v 109.66797 h 22.71875 V 99.636719 c 5.63864,8.478391 13.62746,11.603511 22.71875,11.603511 23.65778,0 34.9336,-19.428692 34.9336,-42.453121 -10e-6,-23.044876 -11.27582,-42.617187 -34.9336,-42.617187 -9.09129,0 -17.08011,3.126006 -22.71875,11.583984 V 0 Z m 93.24219,0 v 109.66797 h 22.71875 V 99.636719 c 5.63864,8.478391 13.62747,11.603511 22.71875,11.603511 23.65777,0 34.93359,-19.428692 34.93359,-42.453121 0,-23.044876 -11.27582,-42.617187 -34.93359,-42.617187 -9.09128,0 -17.08011,3.126006 -22.71875,11.583984 V 0 Z m 297.54101,0 v 37.753906 c -5.63864,-8.457978 -13.48445,-11.583984 -22.71875,-11.583984 -23.65776,0 -34.93359,19.592721 -34.93359,42.617187 0,23.024429 11.27583,42.453121 34.93359,42.453121 9.2343,0 17.08011,-3.14553 22.71875,-11.603511 v 10.031251 h 22.71875 V 0 Z m 221.0918,0 v 109.66797 h 22.71875 V 79.431641 h 11.13281 l 20.67578,30.236329 h 27.25391 L 829.34961,68.929688 857.70703,27.722656 H 830.45312 L 809.77734,58.287109 H 798.64453 V 0 Z M 385.44922,26.169922 c -26.80397,0 -36.50781,19.123485 -36.50781,42.78125 0,16.752492 5.65876,42.291648 42.14648,42.310548 5.94509,0 12.68724,-8.2e-4 24.9043,-2.51367 V 87.910156 c -11.11384,2.186003 -18.63216,2.185547 -22.55469,2.185547 -14.42348,0 -19.42886,-4.556685 -21.00195,-13.791015 h 48.88867 v -9.089844 c 0,-23.187894 -9.70435,-41.044922 -35.875,-41.044922 z m 340.19922,0 c -26.00723,0 -38.08203,18.019643 -38.08203,42.617187 0,24.597544 12.05439,42.453121 38.08203,42.453121 24.59754,0 36.67187,-17.384645 36.67187,-36.037105 h -22.71875 c -0.63333,8.478388 -2.6548,14.892578 -13.78906,14.892578 -13.32026,0 -15.50781,-7.988329 -15.50781,-21.308594 0,-13.320265 2.18755,-21.470703 15.50781,-21.470703 11.13426,0 13.15573,6.4346 13.78906,14.892578 h 22.71875 c 0,-18.65246 -12.07433,-36.039062 -36.67187,-36.039062 z m 171.24218,0 c -26.80399,0 -36.50781,19.123485 -36.50781,42.78125 0,16.752492 5.65981,42.291648 42.16797,42.310548 5.94508,0 12.68724,-8.2e-4 24.9043,-2.51367 V 87.910156 c -11.11382,2.186003 -18.63214,2.185547 -22.55469,2.185547 -14.42347,0 -19.42884,-4.556685 -21.00195,-13.791015 h 48.86718 v -9.089844 c 0,-23.187894 -9.70437,-41.044922 -35.875,-41.044922 z M 0,27.744141 V 109.6875 H 22.71875 V 48.888672 H 52.791016 V 27.744141 Z m 68.480469,0 v 47.458984 c 0,26.170655 15.669214,36.039695 39.796871,36.058595 24.2911,0 39.79883,-9.8684 39.79883,-36.039064 V 27.744141 h -22.71875 v 43.55664 c 0,14.096618 -4.39314,18.794922 -17.08008,18.794922 -12.543928,0 -17.078121,-4.698304 -17.078121,-18.794922 v -43.55664 z m 367.289061,0 V 109.6875 h 22.7168 V 48.888672 h 30.07422 V 27.744141 Z m 159.35156,0 v 47.458984 c 0,26.170655 15.67116,36.039695 39.79883,36.058595 24.2911,0 39.79688,-9.8684 39.79688,-36.039064 V 27.744141 h -22.71875 v 43.55664 c 0,14.096618 -4.3912,18.794922 -17.07813,18.794922 -12.54395,0 -17.08008,-4.698304 -17.08008,-18.794922 v -43.55664 z m 352.08789,0 V 109.6875 h 22.71875 V 48.888672 H 1000 V 27.744141 Z M 204.31836,47.316406 c 11.74717,0 17.38672,6.74075 17.38672,21.470703 0,14.566489 -5.63955,21.308594 -17.38672,21.308594 -11.91061,0 -17.54883,-6.742105 -17.54883,-21.308594 0,-14.729953 5.63822,-21.470703 17.54883,-21.470703 z m 93.24219,0 c 11.74717,0 17.38672,6.74075 17.38672,21.470703 0,14.566489 -5.63955,21.308594 -17.38672,21.308594 -11.91061,0 -17.54883,-6.742105 -17.54883,-21.308594 0,-14.729953 5.63822,-21.470703 17.54883,-21.470703 z m 87.58398,0 c 8.78484,0 12.68699,4.084861 13.32031,13.789063 h -26.64062 c 0.77633,-9.397758 4.86235,-13.789063 13.32031,-13.789063 z m 152.30469,0 c 11.74715,0 17.38476,6.74075 17.38476,21.470703 0,14.566489 -5.63761,21.308594 -17.38476,21.308594 -11.91062,0 -17.55078,-6.742105 -17.55078,-21.308594 0,-14.729953 5.64016,-21.470703 17.55078,-21.470703 z m 359.13476,0 c 8.78484,0 12.68698,4.084861 13.32032,13.789063 h -26.64063 c 0.77635,-9.397758 4.86234,-13.789063 13.32031,-13.789063 z" transform="matrix(0.26458333,0,0,0.26458333,-24.867268,102.29432)" />
   </g>
</svg>
