<svg width="414" height="212" viewBox="0 0 414 212" fill="none" xmlns="http://www.w3.org/2000/svg">
<path d="M407.302 4H6C4.89543 4 4 4.89542 4 5.99999V206C4 207.105 4.89542 208 5.99999 208H407.38C409.131 208 410.037 205.908 408.838 204.631L316.4 106.139C315.672 105.362 315.679 104.151 316.417 103.384L408.743 7.38638C409.965 6.11564 409.065 4 407.302 4Z" fill="#E399DF" stroke="black" stroke-width="8"/>
<path d="M159.585 149H100.92V137.854H159.585V149ZM141.985 115.393H100.626V104.247H141.985V115.393ZM121.662 88.5753L123.003 124.738C123.17 128.342 122.71 131.568 121.62 134.418C120.531 137.239 118.561 139.488 115.712 141.164L104.984 137.854C106.493 137.77 107.652 137.002 108.462 135.549C109.272 134.096 109.817 132.392 110.097 130.437C110.376 128.453 110.488 126.665 110.432 125.073L109.217 88.5753C108.993 82.7088 110.083 77.8061 112.485 73.8672C114.915 69.9283 118.142 66.9671 122.165 64.9837C126.188 63.0002 130.518 62.0085 135.155 62.0085C139.289 62.0085 143.005 62.6929 146.301 64.0618C149.625 65.4306 152.419 67.3023 154.682 69.6768C156.973 72.0234 158.607 74.7053 159.585 77.7223C160.562 80.7393 160.758 83.91 160.171 87.2344L148.061 85.3068C148.34 82.5691 147.907 80.2924 146.762 78.4766C145.617 76.6607 144.038 75.2919 142.027 74.37C140.016 73.4481 137.879 72.9872 135.616 72.9872C133.241 72.9872 130.978 73.5459 128.827 74.6633C126.704 75.7808 124.972 77.4848 123.631 79.7756C122.318 82.0663 121.662 84.9995 121.662 88.5753ZM207.271 150.173C203.443 150.117 199.672 149.419 195.957 148.078C192.269 146.737 188.917 144.502 185.9 141.374C182.883 138.245 180.466 134.04 178.651 128.761C176.863 123.481 175.969 116.888 175.969 108.982C175.969 101.495 176.709 94.8468 178.19 89.0362C179.698 83.2256 181.863 78.3229 184.685 74.3281C187.506 70.3054 190.914 67.2464 194.909 65.1513C198.904 63.0561 203.388 62.0085 208.36 62.0085C213.472 62.0085 218.012 63.0142 221.979 65.0256C225.946 67.0369 229.158 69.8165 231.616 73.3643C234.103 76.9122 235.681 80.9489 236.352 85.4744H223.571C222.705 81.8987 220.987 78.9794 218.417 76.7166C215.847 74.4538 212.495 73.3224 208.36 73.3224C202.075 73.3224 197.172 76.0601 193.652 81.5355C190.16 87.0109 188.4 94.6233 188.372 104.373H189.001C190.481 101.942 192.297 99.8752 194.448 98.1712C196.627 96.4392 199.058 95.1122 201.739 94.1903C204.449 93.2405 207.299 92.7656 210.288 92.7656C215.26 92.7656 219.758 93.9808 223.781 96.4112C227.831 98.8137 231.058 102.138 233.46 106.384C235.863 110.63 237.064 115.491 237.064 120.967C237.064 126.442 235.821 131.401 233.335 135.842C230.876 140.284 227.412 143.804 222.942 146.402C218.473 148.972 213.249 150.229 207.271 150.173ZM207.229 139.278C210.525 139.278 213.472 138.468 216.07 136.848C218.668 135.228 220.722 133.049 222.23 130.311C223.739 127.573 224.493 124.514 224.493 121.134C224.493 117.838 223.753 114.835 222.272 112.125C220.819 109.415 218.808 107.264 216.238 105.672C213.696 104.08 210.79 103.283 207.522 103.283C205.036 103.283 202.731 103.758 200.608 104.708C198.513 105.658 196.669 106.971 195.077 108.647C193.484 110.323 192.227 112.251 191.305 114.43C190.411 116.581 189.964 118.857 189.964 121.26C189.964 124.473 190.705 127.448 192.185 130.185C193.694 132.923 195.747 135.13 198.345 136.806C200.971 138.454 203.932 139.278 207.229 139.278Z" fill="black"/>
</svg>
